<?xml version="1.0" encoding="UTF-8"?>
<svg version="1.1" xmlns="http://www.w3.org/2000/svg" width="500" height="500">
<path d="M0 0 C0.96993393 -0.00426498 1.93986786 -0.00852997 2.93919373 -0.01292419 C4.54893318 -0.01224442 4.54893318 -0.01224442 6.19119263 -0.0115509 C7.31483719 -0.01490952 8.43848175 -0.01826813 9.59617615 -0.02172852 C13.33635546 -0.03127884 17.07649013 -0.03318422 20.81668091 -0.03425598 C23.41206888 -0.03746772 26.00745666 -0.04083173 28.60284424 -0.04434204 C34.05889379 -0.0503449 39.51492558 -0.05222366 44.97097778 -0.05158997 C51.25614787 -0.0509917 57.54123142 -0.0614902 63.82637966 -0.07733363 C69.88492361 -0.09205658 75.94342656 -0.09557594 82.00198746 -0.09498024 C84.57186357 -0.09615723 87.14174038 -0.10056321 89.71160507 -0.10831261 C93.32075778 -0.11816944 96.92969225 -0.11521103 100.53884888 -0.10920715 C101.5917662 -0.11482666 102.64468353 -0.12044617 103.72950745 -0.12623596 C112.46404031 -0.0895305 121.11280552 0.74276151 129.19949341 4.25871277 C130.0283606 4.61191589 130.85722778 4.96511902 131.71121216 5.32902527 C132.30546997 5.59457214 132.89972778 5.86011902 133.51199341 6.13371277 C133.51199341 6.79371277 133.51199341 7.45371277 133.51199341 8.13371277 C134.27511841 8.25746277 135.03824341 8.38121277 135.82449341 8.50871277 C138.51199341 9.13371277 138.51199341 9.13371277 141.51199341 11.13371277 C141.51199341 11.79371277 141.51199341 12.45371277 141.51199341 13.13371277 C142.71855591 13.53590027 142.71855591 13.53590027 143.94949341 13.94621277 C144.79511841 14.33808777 145.64074341 14.72996277 146.51199341 15.13371277 C146.84199341 16.12371277 147.17199341 17.11371277 147.51199341 18.13371277 C148.17199341 18.46371277 148.83199341 18.79371277 149.51199341 19.13371277 C150.17199341 19.46371277 150.83199341 19.79371277 151.51199341 20.13371277 C151.84199341 21.12371277 152.17199341 22.11371277 152.51199341 23.13371277 C153.17199341 23.46371277 153.83199341 23.79371277 154.51199341 24.13371277 C157.51199341 29.44140508 157.51199341 29.44140508 157.51199341 33.13371277 C158.17199341 33.13371277 158.83199341 33.13371277 159.51199341 33.13371277 C160.50199341 35.77371277 161.49199341 38.41371277 162.51199341 41.13371277 C162.7427356 40.50465027 162.97347778 39.87558777 163.21121216 39.22746277 C165.36738948 33.56856259 167.62987864 27.86091375 171.51199341 23.13371277 C172.17199341 23.13371277 172.83199341 23.13371277 173.51199341 23.13371277 C173.71824341 22.41183777 173.92449341 21.68996277 174.13699341 20.94621277 C175.98728329 17.16152893 178.11439779 15.61112624 181.51199341 13.13371277 C182.17199341 13.13371277 182.83199341 13.13371277 183.51199341 13.13371277 C183.84199341 12.14371277 184.17199341 11.15371277 184.51199341 10.13371277 C187.57449341 8.94621277 187.57449341 8.94621277 190.51199341 8.13371277 C190.51199341 7.47371277 190.51199341 6.81371277 190.51199341 6.13371277 C192.67463947 5.3105708 194.84234438 4.50071498 197.01199341 3.69621277 C198.21855591 3.24375183 199.42511841 2.79129089 200.66824341 2.32511902 C209.14549773 -0.49512448 218.03086734 0.00141643 226.85574341 0.03605652 C228.2343643 0.03792489 229.61298587 0.03934681 230.99160767 0.04034424 C234.5951424 0.04413642 238.19863593 0.05393799 241.80215454 0.06504822 C245.48928266 0.0753338 249.17641753 0.07985708 252.86355591 0.08488464 C260.0797204 0.09556368 267.2958511 0.11259978 274.51199341 0.13371277 C274.53402164 1.89277087 274.54973119 3.65190885 274.56277466 5.41105652 C274.57220093 6.39066345 274.5816272 7.37027039 274.59133911 8.37956238 C274.48961375 11.9105278 273.6636916 14.79984959 272.51199341 18.13371277 C272.20261841 19.32287292 272.20261841 19.32287292 271.88699341 20.53605652 C270.34427552 26.36507581 268.42688875 30.51614391 264.51199341 35.13371277 C263.85199341 35.13371277 263.19199341 35.13371277 262.51199341 35.13371277 C262.28511841 35.85558777 262.05824341 36.57746277 261.82449341 37.32121277 C259.45891808 42.39030275 255.02023168 45.93049084 250.51199341 49.13371277 C249.52199341 49.13371277 248.53199341 49.13371277 247.51199341 49.13371277 C247.51199341 49.79371277 247.51199341 50.45371277 247.51199341 51.13371277 C241.01199341 54.13371277 241.01199341 54.13371277 236.51199341 54.13371277 C236.51199341 54.79371277 236.51199341 55.45371277 236.51199341 56.13371277 C212.96897949 60.84231555 188.52125088 58.13371277 164.51199341 58.13371277 C164.51199341 131.39371277 164.51199341 204.65371277 164.51199341 280.13371277 C160.22199341 280.13371277 155.93199341 280.13371277 151.51199341 280.13371277 C151.51199341 279.47371277 151.51199341 278.81371277 151.51199341 278.13371277 C150.93191528 278.08472839 150.35183716 278.03574402 149.75418091 277.98527527 C145.07276249 277.53721872 140.93713882 276.83569177 136.51199341 275.13371277 C136.51199341 274.47371277 136.51199341 273.81371277 136.51199341 273.13371277 C135.93449341 273.00996277 135.35699341 272.88621277 134.76199341 272.75871277 C132.48863574 272.12722453 130.58664051 271.24513086 128.51199341 270.13371277 C128.51199341 269.47371277 128.51199341 268.81371277 128.51199341 268.13371277 C127.81074341 267.94808777 127.10949341 267.76246277 126.38699341 267.57121277 C122.97507166 265.86525189 121.2924661 263.82927725 118.94168091 260.88761902 C117.56723884 259.11254347 117.56723884 259.11254347 115.93777466 257.70402527 C114.15481138 255.74032325 113.59343458 253.97273375 112.82449341 251.44621277 C112.57312622 250.63797058 112.32175903 249.82972839 112.06277466 248.99699402 C111.88101685 248.38211121 111.69925903 247.76722839 111.51199341 247.13371277 C110.85199341 247.13371277 110.19199341 247.13371277 109.51199341 247.13371277 C106.67658045 236.38727804 106.09449559 226.51345908 106.17141724 215.47990417 C106.17226554 213.7537233 106.17178441 212.02754134 106.17008972 210.30136108 C106.16923626 205.65967895 106.18675567 201.01823396 106.20781159 196.37660646 C106.22668779 191.50930801 106.2283374 186.64200288 106.23188782 181.77467346 C106.24117636 172.57756111 106.26574652 163.38055697 106.29593629 154.18349206 C106.32958018 143.7045429 106.34599132 133.2255883 106.36102259 122.74659848 C106.39229924 101.20890974 106.44499704 79.6713181 106.51199341 58.13371277 C105.34260727 58.1403746 105.34260727 58.1403746 104.14959717 58.14717102 C96.76521518 58.18741856 89.38088718 58.21778339 81.99642372 58.23733711 C78.20094712 58.24772814 74.40556194 58.26180065 70.61013794 58.28459167 C66.94022104 58.30648852 63.27039151 58.3183165 59.60041428 58.32346725 C58.2075399 58.32713304 56.81466973 58.33429044 55.42183304 58.34517288 C47.53581667 58.40427871 40.1694836 58.11902969 32.51199341 56.13371277 C32.51199341 55.47371277 32.51199341 54.81371277 32.51199341 54.13371277 C31.18168091 53.94808777 31.18168091 53.94808777 29.82449341 53.75871277 C26.80811838 53.18958541 24.30873287 52.36756841 21.51199341 51.13371277 C21.51199341 50.47371277 21.51199341 49.81371277 21.51199341 49.13371277 C20.79011841 48.90683777 20.06824341 48.67996277 19.32449341 48.44621277 C15.94766923 46.87036149 13.95432301 44.9249466 11.51199341 42.13371277 C11.51199341 41.47371277 11.51199341 40.81371277 11.51199341 40.13371277 C10.67668091 39.85527527 10.67668091 39.85527527 9.82449341 39.57121277 C6.48064534 37.49260451 4.46391513 34.52557675 2.51199341 31.13371277 C2.51199341 30.47371277 2.51199341 29.81371277 2.51199341 29.13371277 C1.85199341 29.13371277 1.19199341 29.13371277 0.51199341 29.13371277 C-2.93219794 19.72368999 -2.93219794 19.72368999 -2.48800659 15.13371277 C-3.14800659 15.13371277 -3.80800659 15.13371277 -4.48800659 15.13371277 C-4.68191388 12.82174122 -4.86797026 10.50910987 -5.05050659 8.19621277 C-5.20712769 6.26455261 -5.20712769 6.26455261 -5.36691284 4.29386902 C-5.40687378 3.25101746 -5.44683472 2.20816589 -5.48800659 1.13371277 C-3.88959112 -0.46470271 -2.21476309 0.004379 0 0 Z " fill="#FEEA3B" transform="translate(59.488006591796875,111.86628723144531)"/>
<path d="M0 0 C0.33 0 0.66 0 1 0 C1.99 4.95 2.98 9.9 4 15 C5.32 12.69 6.64 10.38 8 8 C8.66 8 9.32 8 10 8 C9.34 10.97 8.68 13.94 8 17 C9.29315061 16.04367001 10.58446853 15.08486149 11.875 14.125 C12.59429687 13.59132812 13.31359375 13.05765625 14.0546875 12.5078125 C16.08252632 11.00126838 16.08252632 11.00126838 18 9 C20.125 9.375 20.125 9.375 22 10 C18.25 15.875 18.25 15.875 16 17 C15.34 18.32 14.68 19.64 14 21 C16.97 20.67 19.94 20.34 23 20 C22.67 20.99 22.34 21.98 22 23 C18.4375 24.1875 18.4375 24.1875 15 25 C15 25.66 15 26.32 15 27 C19.95 27.66 24.9 28.32 30 29 C30 29.66 30 30.32 30 31 C27.29816945 32.35091528 24.88191794 32.33858058 21.875 32.5625 C20.77929688 32.64628906 19.68359375 32.73007813 18.5546875 32.81640625 C17.71164062 32.87699219 16.86859375 32.93757813 16 33 C16.78375 33.61875 17.5675 34.2375 18.375 34.875 C21 37 21 37 23 39 C20.36 39 17.72 39 15 39 C17.46068038 43.68248071 17.46068038 43.68248071 20.75 47.75 C22 49 22 49 22 52 C18.89257577 50.53181332 16.09528261 48.79975 13.25 46.875 C12.45078125 46.33617187 11.6515625 45.79734375 10.828125 45.2421875 C10.22484375 44.83226562 9.6215625 44.42234375 9 44 C9.33 46.64 9.66 49.28 10 52 C9.34 52 8.68 52 8 52 C6.98133771 50.34467377 5.98189187 48.67739862 5 47 C4.34 46.67 3.68 46.34 3 46 C2.34 49.96 1.68 53.92 1 58 C3.97 57.505 3.97 57.505 7 57 C8.13679484 60.41038451 7.88350126 61.01194603 6.671875 64.24609375 C6.36813965 65.07737793 6.0644043 65.90866211 5.75146484 66.76513672 C5.42098145 67.6470166 5.09049805 68.52889648 4.75 69.4375 C2.37797616 75.95911424 0.28854321 82.36335372 -1.25390625 89.13671875 C-2.46714509 93.79276099 -4.21733867 98.25034089 -5.87890625 102.76171875 C-6.78027748 105.36533113 -7.47513135 107.80567424 -8 110.5 C-8.9959103 115.56331968 -10.85951401 120.267985 -12.63671875 125.1015625 C-14.38883964 129.98740498 -15.80747263 134.96793387 -17.2121582 139.96289062 C-18.20699045 143.46227516 -19.29504746 146.87610535 -20.58984375 150.27734375 C-22.06115882 153.95000404 -22.06115882 153.95000404 -22.9375 157.6875 C-24.39122472 162.2197006 -26.54286825 164.75715233 -30.125 167.8125 C-34.4300046 169.59065408 -38.41057812 169.67036499 -43 169 C-46.375 167.25 -46.375 167.25 -49 165 C-49.7425 164.4225 -50.485 163.845 -51.25 163.25 C-53.2516763 160.67641619 -53.70139297 158.37325403 -54.4375 155.24267578 C-55.36905173 151.52859842 -56.63335458 147.93237394 -57.875 144.3125 C-60.39969591 136.91874768 -62.72274953 129.47353148 -65 122 C-66.51597638 117.04016412 -68.03781207 112.08216413 -69.5625 107.125 C-69.75577881 106.49110352 -69.94905762 105.85720703 -70.14819336 105.20410156 C-73.12254877 95.4329795 -73.12254877 95.4329795 -77 86 C-80.17922366 94.68370476 -83.19780652 103.24304662 -85.296875 112.26171875 C-86.23347911 115.90927143 -87.56009463 119.35740462 -88.89453125 122.875 C-90.51725761 127.46221232 -91.84084808 132.12937039 -93.16162109 136.8112793 C-94.17146687 140.34990211 -95.27145178 143.79643206 -96.59765625 147.23046875 C-97.67417008 150.02652395 -98.41871603 152.65358978 -98.875 155.625 C-100.05695473 161.29056812 -102.81218159 164.12472708 -107.1875 167.875 C-111.46415519 169.58566208 -115.46069879 169.66925595 -120 169 C-125.67435098 166.00806948 -128.92051697 163.02070177 -130.90234375 156.94921875 C-131.23331055 155.94721436 -131.56427734 154.94520996 -131.90527344 153.9128418 C-132.2459082 152.848479 -132.58654297 151.78411621 -132.9375 150.6875 C-133.29231445 149.60186768 -133.64712891 148.51623535 -134.01269531 147.39770508 C-136.21246589 140.61575371 -138.25256782 133.81135841 -140.14453125 126.9375 C-141.22199871 123.23770308 -142.56697132 119.67020649 -143.92578125 116.06640625 C-145.55746588 111.4086883 -146.90208144 106.67117623 -148.24975586 101.92456055 C-149.31950192 98.18413813 -150.55572841 94.60765748 -152 91 C-152.46550421 89.19448945 -152.90134715 87.3811577 -153.3125 85.5625 C-154.71089338 79.800276 -156.6275789 74.34539534 -158.671875 68.78515625 C-160.90249693 62.57527589 -162.63912987 56.20918892 -164.45214844 49.86816406 C-165.16531586 47.43627587 -165.9624095 45.03365056 -166.75 42.625 C-168.60283194 36.37435432 -170.21850525 29.37912992 -167.9375 23.0625 C-165.54218654 19.27635937 -164.13172783 17.81216133 -160 16 C-153.49474378 15.22430549 -148.47405684 15.12372486 -143 19 C-139.98802869 21.92338392 -138.7092893 24.58145671 -137.5859375 28.5390625 C-136.05308882 33.82370895 -134.41966638 39.06962321 -132.75 44.3125 C-132.3020105 45.72233154 -132.3020105 45.72233154 -131.8449707 47.16064453 C-129.41247476 54.7827616 -126.89459002 62.37478331 -124.30957031 69.9465332 C-122.84229026 74.28572448 -121.5630826 78.59903955 -120.49829102 83.05322266 C-119.63483691 86.42665873 -118.50110268 89.70680437 -117.375 93 C-117.03082031 94.01900391 -117.03082031 94.01900391 -116.6796875 95.05859375 C-116.12258882 96.70667733 -115.5617034 98.35348012 -115 100 C-114.76925781 99.175 -114.53851563 98.35 -114.30078125 97.5 C-110.85261355 85.28830728 -107.18370438 73.18795161 -102.875 61.25 C-101.19612482 56.59519746 -99.67000938 52.01841514 -98.5625 47.1875 C-97.2260296 41.51738592 -95.47654104 36.01915864 -93.625 30.5 C-93.20456421 29.18938599 -93.20456421 29.18938599 -92.77563477 27.85229492 C-90.76618251 22.00159447 -88.69703816 18.84851908 -83 16 C-81.06640414 15.85148156 -79.12657903 15.77869167 -77.1875 15.75 C-76.14980469 15.72421875 -75.11210937 15.6984375 -74.04296875 15.671875 C-69.43145508 16.16913706 -67.03574112 17.93611374 -63.84375 21.21484375 C-61.66453513 24.50675097 -60.55576572 27.80223239 -59.5 31.5625 C-59.07393884 33.00290691 -58.64684773 34.44300956 -58.21875 35.8828125 C-58.0125 36.58696289 -57.80625 37.29111328 -57.59375 38.01660156 C-56.79626576 40.68056619 -55.90329367 43.30774988 -55 45.9375 C-52.13739142 54.43260967 -49.71537861 63.06548309 -47.2265625 71.67578125 C-45.56238142 77.34378624 -43.72681033 82.95355164 -41.875 88.5625 C-41.47583374 89.77957642 -41.47583374 89.77957642 -41.06860352 91.02124023 C-40.05891919 94.80276925 -40.05891919 94.80276925 -38 98 C-34.31671517 87.73587154 -30.72821412 77.50677441 -27.8359375 66.98828125 C-26.70331519 62.93942111 -25.37286755 58.97238007 -24 55 C-23.4121875 53.2365625 -23.4121875 53.2365625 -22.8125 51.4375 C-22.544375 50.633125 -22.27625 49.82875 -22 49 C-21.34 49 -20.68 49 -20 49 C-20 48.34 -20 47.68 -20 47 C-18.66666667 45.66666667 -17.33333333 44.33333333 -16 43 C-14.76487921 40.86690808 -14.76487921 40.86690808 -14 39 C-16.64 39 -19.28 39 -22 39 C-19.66666667 36.66666667 -17.33333333 34.33333333 -15 32 C-15.83144531 32.01160156 -16.66289062 32.02320313 -17.51953125 32.03515625 C-18.60621094 32.04417969 -19.69289063 32.05320313 -20.8125 32.0625 C-21.89144531 32.07410156 -22.97039062 32.08570313 -24.08203125 32.09765625 C-27 32 -27 32 -30 31 C-30 30.34 -30 29.68 -30 29 C-25.05 28.34 -20.1 27.68 -15 27 C-15.85006086 24.73283571 -15.85006086 24.73283571 -18.5 24.0625 C-19.325 23.711875 -20.15 23.36125 -21 23 C-21.33 22.01 -21.66 21.02 -22 20 C-17.545 20.99 -17.545 20.99 -13 22 C-13.56589844 21.22914063 -14.13179687 20.45828125 -14.71484375 19.6640625 C-15.44832031 18.66117188 -16.18179688 17.65828125 -16.9375 16.625 C-17.66839844 15.62726563 -18.39929688 14.62953125 -19.15234375 13.6015625 C-21 11 -21 11 -22 9 C-20.02 9.33 -18.04 9.66 -16 10 C-15.67 10.99 -15.34 11.98 -15 13 C-13.16715557 14.12516085 -13.16715557 14.12516085 -11 15 C-9.02 15.99 -9.02 15.99 -7 17 C-7.99 12.545 -7.99 12.545 -9 8 C-6.66475218 10.25740623 -4.81294927 12.2805761 -3 15 C-2.86722656 14.08476562 -2.73445312 13.16953125 -2.59765625 12.2265625 C-2.42105469 11.03804687 -2.24445313 9.84953125 -2.0625 8.625 C-1.88847656 7.44164062 -1.71445312 6.25828125 -1.53515625 5.0390625 C-1 2 -1 2 0 0 Z M-9 43 C-13.455 46.465 -13.455 46.465 -18 50 C-14.82036515 54.90193706 -11.50570834 56.62629851 -6 58 C-3.16464548 58.25514536 -3.16464548 58.25514536 -1 58 C-0.91840426 53.83861737 -1.01751476 50.0527516 -2 46 C-3.94999129 46.19471111 -3.94999129 46.19471111 -6 47 C-7.28436734 48.9837767 -7.28436734 48.9837767 -8 51 C-7.67 48.69 -7.34 46.38 -7 44 C-7.66 43.67 -8.32 43.34 -9 43 Z " fill="#40C4FE" transform="translate(409,216)"/>
<path d="M0 0 C1.37862089 0.00186837 2.75724246 0.00329029 4.13586426 0.00428772 C7.739399 0.0080799 11.34289252 0.01788147 14.94641113 0.0289917 C18.63353925 0.03927729 22.32067412 0.04380056 26.0078125 0.04882812 C33.22397699 0.05950716 40.44010769 0.07654326 47.65625 0.09765625 C47.67827823 1.85671435 47.69398779 3.61585233 47.70703125 5.375 C47.72117065 6.8444104 47.72117065 6.8444104 47.7355957 8.34350586 C47.63387035 11.87447128 46.80794819 14.76379308 45.65625 18.09765625 C45.45 18.89042969 45.24375 19.68320313 45.03125 20.5 C43.48853211 26.32901929 41.57114534 30.48008739 37.65625 35.09765625 C36.99625 35.09765625 36.33625 35.09765625 35.65625 35.09765625 C35.429375 35.81953125 35.2025 36.54140625 34.96875 37.28515625 C32.60317468 42.35424623 28.16448827 45.89443432 23.65625 49.09765625 C22.66625 49.09765625 21.67625 49.09765625 20.65625 49.09765625 C20.65625 49.75765625 20.65625 50.41765625 20.65625 51.09765625 C14.15625 54.09765625 14.15625 54.09765625 9.65625 54.09765625 C9.65625 54.75765625 9.65625 55.41765625 9.65625 56.09765625 C1.32904799 58.25660581 -6.7635939 58.35982367 -15.3203125 58.29296875 C-16.74091389 58.28922999 -18.16151789 58.28638711 -19.5821228 58.28439331 C-23.28761142 58.27682464 -26.99293861 58.25723595 -30.69836426 58.23498535 C-34.49289772 58.21437952 -38.28745774 58.20536036 -42.08203125 58.1953125 C-49.50267707 58.17398231 -56.92319076 58.13993017 -64.34375 58.09765625 C-64.38951168 55.38001516 -64.42288334 52.66315434 -64.44921875 49.9453125 C-64.46335815 49.18109985 -64.47749756 48.41688721 -64.49206543 47.6295166 C-64.53740474 41.38444651 -63.42834957 36.58249086 -60.34375 31.09765625 C-59.91191406 30.31261719 -59.48007813 29.52757812 -59.03515625 28.71875 C-56.7301127 24.78581219 -56.7301127 24.78581219 -55.34375 23.09765625 C-54.68375 23.09765625 -54.02375 23.09765625 -53.34375 23.09765625 C-53.1375 22.37578125 -52.93125 21.65390625 -52.71875 20.91015625 C-50.86846012 17.12547241 -48.74134562 15.57506972 -45.34375 13.09765625 C-44.68375 13.09765625 -44.02375 13.09765625 -43.34375 13.09765625 C-43.01375 12.10765625 -42.68375 11.11765625 -42.34375 10.09765625 C-39.28125 8.91015625 -39.28125 8.91015625 -36.34375 8.09765625 C-36.34375 7.43765625 -36.34375 6.77765625 -36.34375 6.09765625 C-34.18110394 5.27451428 -32.01339902 4.46465846 -29.84375 3.66015625 C-28.6371875 3.20769531 -27.430625 2.75523438 -26.1875 2.2890625 C-17.71024568 -0.531181 -8.82487606 -0.03464009 0 0 Z " fill="#7AC942" transform="translate(286.34375,111.90234375)"/>
<path d="M0 0 C0.33 0 0.66 0 1 0 C2.485 7.425 2.485 7.425 4 15 C5.32 12.69 6.64 10.38 8 8 C8.66 8 9.32 8 10 8 C9.34 10.97 8.68 13.94 8 17 C9.29315061 16.04367001 10.58446853 15.08486149 11.875 14.125 C12.59429687 13.59132812 13.31359375 13.05765625 14.0546875 12.5078125 C16.08252632 11.00126838 16.08252632 11.00126838 18 9 C20.125 9.375 20.125 9.375 22 10 C18.25 15.875 18.25 15.875 16 17 C15.34 18.32 14.68 19.64 14 21 C16.97 20.67 19.94 20.34 23 20 C22.505 21.485 22.505 21.485 22 23 C18.4375 24.1875 18.4375 24.1875 15 25 C15 25.66 15 26.32 15 27 C22.425 27.99 22.425 27.99 30 29 C30 29.66 30 30.32 30 31 C27.29816945 32.35091528 24.88191794 32.33858058 21.875 32.5625 C20.77929688 32.64628906 19.68359375 32.73007813 18.5546875 32.81640625 C17.71164062 32.87699219 16.86859375 32.93757813 16 33 C17.175625 33.928125 17.175625 33.928125 18.375 34.875 C21 37 21 37 23 39 C20.36 39 17.72 39 15 39 C17.46068038 43.68248071 17.46068038 43.68248071 20.75 47.75 C22 49 22 49 22 52 C18.89257577 50.53181332 16.09528261 48.79975 13.25 46.875 C12.45078125 46.33617187 11.6515625 45.79734375 10.828125 45.2421875 C10.22484375 44.83226562 9.6215625 44.42234375 9 44 C9.495 47.96 9.495 47.96 10 52 C9.34 52 8.68 52 8 52 C6.98133771 50.34467377 5.98189187 48.67739862 5 47 C4.01 46.505 4.01 46.505 3 46 C2.34 50.29 1.68 54.58 1 59 C0.34 58.67 -0.32 58.34 -1 58 C-1.4140625 55.27734375 -1.4140625 55.27734375 -1.625 51.9375 C-1.69976562 50.83277344 -1.77453125 49.72804688 -1.8515625 48.58984375 C-1.90054687 47.73519531 -1.94953125 46.88054687 -2 46 C-3.96971804 46.30464127 -3.96971804 46.30464127 -6 47 C-7.29660434 49.49034386 -7.29660434 49.49034386 -8 52 C-8.99435406 48.90645403 -8.87840996 47.09720845 -8 44 C-8.61488281 44.433125 -9.22976563 44.86625 -9.86328125 45.3125 C-10.67152344 45.869375 -11.47976563 46.42625 -12.3125 47 C-13.11300781 47.556875 -13.91351563 48.11375 -14.73828125 48.6875 C-17 50 -17 50 -20 50 C-20 47 -20 47 -18.125 45.0625 C-17.073125 44.0415625 -17.073125 44.0415625 -16 43 C-14.76487921 40.86690808 -14.76487921 40.86690808 -14 39 C-16.64 39 -19.28 39 -22 39 C-19.66666667 36.66666667 -17.33333333 34.33333333 -15 32 C-15.83144531 32.01160156 -16.66289062 32.02320313 -17.51953125 32.03515625 C-18.60621094 32.04417969 -19.69289063 32.05320313 -20.8125 32.0625 C-21.89144531 32.07410156 -22.97039062 32.08570313 -24.08203125 32.09765625 C-27 32 -27 32 -30 31 C-30 30.34 -30 29.68 -30 29 C-25.05 28.34 -20.1 27.68 -15 27 C-15.85006086 24.73283571 -15.85006086 24.73283571 -18.5 24.0625 C-19.325 23.711875 -20.15 23.36125 -21 23 C-21.33 22.01 -21.66 21.02 -22 20 C-17.545 20.99 -17.545 20.99 -13 22 C-13.84884766 20.84371094 -13.84884766 20.84371094 -14.71484375 19.6640625 C-15.44832031 18.66117188 -16.18179687 17.65828125 -16.9375 16.625 C-17.66839844 15.62726563 -18.39929688 14.62953125 -19.15234375 13.6015625 C-21 11 -21 11 -22 9 C-19.03 9.495 -19.03 9.495 -16 10 C-15.67 10.99 -15.34 11.98 -15 13 C-13.16715557 14.12516085 -13.16715557 14.12516085 -11 15 C-9.68 15.66 -8.36 16.32 -7 17 C-7.66 14.03 -8.32 11.06 -9 8 C-6.66475218 10.25740623 -4.81294927 12.2805761 -3 15 C-2.86722656 14.08476562 -2.73445313 13.16953125 -2.59765625 12.2265625 C-2.42105469 11.03804687 -2.24445313 9.84953125 -2.0625 8.625 C-1.80146484 6.84996094 -1.80146484 6.84996094 -1.53515625 5.0390625 C-1 2 -1 2 0 0 Z " fill="#FACC08" transform="translate(409,216)"/>
</svg>
